<svg width="18" height="12" viewBox="0 0 18 12" fill="none" xmlns="http://www.w3.org/2000/svg">
<path d="M8.5 0H5.5C5.225 0 5 0.225 5 0.5V11.5C5 11.775 5.225 12 5.5 12H8.5C8.775 12 9 11.775 9 11.5V0.5C9 0.225 8.775 0 8.5 0ZM8 3H6V2H8V3Z" fill="#32BEA6"/>
<path d="M8 3H6V2H8V3Z" fill="white"/>
<path fill-rule="evenodd" clip-rule="evenodd" d="M3.5 0H0.5C0.225 0 0 0.225 0 0.5V11.5C0 11.775 0.225 12 0.5 12H3.5C3.775 12 4 11.775 4 11.5V0.5C4 0.225 3.775 0 3.5 0ZM1 3H3V2H1V3Z" fill="#F2B851"/>
<path fill-rule="evenodd" clip-rule="evenodd" d="M3.5 0H0.5C0.225 0 0 0.225 0 0.5V11.5C0 11.775 0.225 12 0.5 12H3.5C3.775 12 4 11.775 4 11.5V0.5C4 0.225 3.775 0 3.5 0ZM1 3H3V2H1V3Z" fill="white" fill-opacity="0.2"/>
<path d="M3 3H1V2H3V3Z" fill="#F2B851"/>
<path d="M3 3H1V2H3V3Z" fill="white"/>
<path d="M11.9542 0.773885L9.27518 2.12388C9.15681 2.18347 9.06693 2.28762 9.02531 2.41344C8.98368 2.53926 8.99371 2.67645 9.05318 2.79488L13.5532 11.7249C13.6128 11.8433 13.7169 11.9331 13.8427 11.9748C13.9686 12.0164 14.1058 12.0064 14.2242 11.9469L16.9032 10.5969C17.0216 10.5373 17.1114 10.4332 17.1531 10.3073C17.1947 10.1815 17.1847 10.0443 17.1252 9.92589L12.6252 0.995885C12.5656 0.877511 12.4614 0.787636 12.3356 0.746009C12.2098 0.704382 12.0726 0.714409 11.9542 0.773885Z" fill="#E04F5F"/>
</svg>
