<svg width="72" height="12" viewBox="0 0 72 12" fill="none" xmlns="http://www.w3.org/2000/svg">
<path d="M8.5 0H5.5C5.225 0 5 0.225 5 0.5V11.5C5 11.775 5.225 12 5.5 12H8.5C8.775 12 9 11.775 9 11.5V0.5C9 0.225 8.775 0 8.5 0ZM8 3H6V2H8V3Z" fill="#32BEA6"/>
<path d="M8 3H6V2H8V3Z" fill="white"/>
<path fill-rule="evenodd" clip-rule="evenodd" d="M3.5 0H0.5C0.225 0 0 0.225 0 0.5V11.5C0 11.775 0.225 12 0.5 12H3.5C3.775 12 4 11.775 4 11.5V0.5C4 0.225 3.775 0 3.5 0ZM1 3H3V2H1V3Z" fill="#F2B851"/>
<path fill-rule="evenodd" clip-rule="evenodd" d="M3.5 0H0.5C0.225 0 0 0.225 0 0.5V11.5C0 11.775 0.225 12 0.5 12H3.5C3.775 12 4 11.775 4 11.5V0.5C4 0.225 3.775 0 3.5 0ZM1 3H3V2H1V3Z" fill="white" fill-opacity="0.2"/>
<path d="M3 3H1V2H3V3Z" fill="#F2B851"/>
<path d="M3 3H1V2H3V3Z" fill="white"/>
<path d="M11.9542 0.773885L9.27518 2.12388C9.15681 2.18347 9.06693 2.28762 9.02531 2.41344C8.98368 2.53926 8.99371 2.67645 9.05318 2.79488L13.5532 11.7249C13.6128 11.8433 13.7169 11.9331 13.8427 11.9748C13.9686 12.0164 14.1058 12.0064 14.2242 11.9469L16.9032 10.5969C17.0216 10.5373 17.1114 10.4332 17.1531 10.3073C17.1947 10.1815 17.1847 10.0443 17.1252 9.92589L12.6252 0.995885C12.5656 0.877511 12.4614 0.787636 12.3356 0.746009C12.2098 0.704382 12.0726 0.714409 11.9542 0.773885Z" fill="#E04F5F"/>
<path d="M22.4883 1.04688V11H20.0957V1.04688H22.4883ZM24.9913 5.18262V11H23.0226V3.60352H24.8683L24.9913 5.18262ZM24.7042 7.04199H24.171C24.171 6.49512 24.2417 6.00293 24.3829 5.56543C24.5242 5.12337 24.7224 4.7474 24.9777 4.4375C25.2329 4.12305 25.5359 3.88379 25.8868 3.71973C26.2423 3.55111 26.6388 3.4668 27.0763 3.4668C27.4226 3.4668 27.7394 3.51693 28.0265 3.61719C28.3136 3.71745 28.5597 3.87695 28.7648 4.0957C28.9744 4.31445 29.1339 4.60384 29.2433 4.96387C29.3572 5.32389 29.4142 5.76367 29.4142 6.2832V11H27.4318V6.27637C27.4318 5.94824 27.3862 5.69303 27.295 5.51074C27.2039 5.32845 27.0695 5.20085 26.8917 5.12793C26.7185 5.05046 26.5043 5.01172 26.2491 5.01172C25.9848 5.01172 25.7547 5.06413 25.5587 5.16895C25.3673 5.27376 25.2078 5.4196 25.0802 5.60645C24.9571 5.78874 24.8637 6.00293 24.7999 6.24902C24.7361 6.49512 24.7042 6.75944 24.7042 7.04199ZM29.4768 7.37695V7.2334C29.4768 6.69108 29.5543 6.19206 29.7092 5.73633C29.8642 5.27604 30.0898 4.87728 30.386 4.54004C30.6822 4.2028 31.0468 3.94076 31.4797 3.75391C31.9127 3.5625 32.4094 3.4668 32.97 3.4668C33.5305 3.4668 34.0295 3.5625 34.467 3.75391C34.9045 3.94076 35.2714 4.2028 35.5676 4.54004C35.8684 4.87728 36.0963 5.27604 36.2512 5.73633C36.4062 6.19206 36.4836 6.69108 36.4836 7.2334V7.37695C36.4836 7.91471 36.4062 8.41374 36.2512 8.87402C36.0963 9.32975 35.8684 9.72852 35.5676 10.0703C35.2714 10.4076 34.9068 10.6696 34.4739 10.8564C34.0409 11.0433 33.5442 11.1367 32.9836 11.1367C32.4231 11.1367 31.9241 11.0433 31.4866 10.8564C31.0536 10.6696 30.6868 10.4076 30.386 10.0703C30.0898 9.72852 29.8642 9.32975 29.7092 8.87402C29.5543 8.41374 29.4768 7.91471 29.4768 7.37695ZM31.4455 7.2334V7.37695C31.4455 7.68685 31.4729 7.97624 31.5276 8.24512C31.5823 8.514 31.6689 8.75098 31.7873 8.95605C31.9104 9.15658 32.0699 9.3138 32.2659 9.42773C32.4618 9.54167 32.7011 9.59863 32.9836 9.59863C33.2571 9.59863 33.4918 9.54167 33.6877 9.42773C33.8837 9.3138 34.0409 9.15658 34.1594 8.95605C34.2779 8.75098 34.3645 8.514 34.4192 8.24512C34.4784 7.97624 34.508 7.68685 34.508 7.37695V7.2334C34.508 6.93262 34.4784 6.65007 34.4192 6.38574C34.3645 6.11686 34.2756 5.87988 34.1526 5.6748C34.0341 5.46517 33.8769 5.30111 33.6809 5.18262C33.4849 5.06413 33.248 5.00488 32.97 5.00488C32.692 5.00488 32.455 5.06413 32.259 5.18262C32.0676 5.30111 31.9104 5.46517 31.7873 5.6748C31.6689 5.87988 31.5823 6.11686 31.5276 6.38574C31.4729 6.65007 31.4455 6.93262 31.4455 7.2334ZM38.9798 9.56445L40.6205 3.60352H42.6781L40.183 11H38.9388L38.9798 9.56445ZM37.8519 3.60352L39.4994 9.57129L39.5336 11H38.2826L35.7875 3.60352H37.8519ZM46.3227 9.33203V6.03711C46.3227 5.80013 46.284 5.59733 46.2065 5.42871C46.129 5.25553 46.0083 5.12109 45.8442 5.02539C45.6847 4.92969 45.4774 4.88184 45.2221 4.88184C45.0034 4.88184 44.8143 4.92057 44.6548 4.99805C44.4953 5.07096 44.3722 5.17806 44.2856 5.31934C44.199 5.45605 44.1557 5.61784 44.1557 5.80469H42.187C42.187 5.49023 42.2599 5.19173 42.4057 4.90918C42.5516 4.62663 42.7635 4.37826 43.0415 4.16406C43.3195 3.94531 43.6499 3.77441 44.0327 3.65137C44.4201 3.52832 44.853 3.4668 45.3315 3.4668C45.9057 3.4668 46.4162 3.5625 46.8628 3.75391C47.3094 3.94531 47.6603 4.23242 47.9155 4.61523C48.1753 4.99805 48.3052 5.47656 48.3052 6.05078V9.21582C48.3052 9.62142 48.3302 9.9541 48.3804 10.2139C48.4305 10.4691 48.5034 10.6924 48.5991 10.8838V11H46.6098C46.5141 10.7995 46.4412 10.5488 46.3911 10.248C46.3455 9.94271 46.3227 9.63737 46.3227 9.33203ZM46.5825 6.49512L46.5962 7.60938H45.4956C45.2358 7.60938 45.0102 7.639 44.8188 7.69824C44.6274 7.75749 44.4702 7.8418 44.3471 7.95117C44.2241 8.05599 44.133 8.17904 44.0737 8.32031C44.019 8.46159 43.9917 8.61654 43.9917 8.78516C43.9917 8.95378 44.0304 9.10645 44.1079 9.24316C44.1854 9.37533 44.297 9.48014 44.4429 9.55762C44.5887 9.63053 44.7596 9.66699 44.9555 9.66699C45.2518 9.66699 45.5093 9.60775 45.728 9.48926C45.9468 9.37077 46.1154 9.22493 46.2339 9.05176C46.3569 8.87858 46.4207 8.71452 46.4253 8.55957L46.9448 9.39355C46.8719 9.5804 46.7716 9.77409 46.644 9.97461C46.521 10.1751 46.3638 10.3643 46.1723 10.542C45.9809 10.7152 45.7508 10.8587 45.4819 10.9727C45.213 11.082 44.894 11.1367 44.5249 11.1367C44.0555 11.1367 43.6294 11.0433 43.2466 10.8564C42.8683 10.665 42.5675 10.403 42.3442 10.0703C42.1255 9.73307 42.0161 9.35026 42.0161 8.92188C42.0161 8.53451 42.089 8.19043 42.2348 7.88965C42.3807 7.58887 42.5949 7.33594 42.8774 7.13086C43.1645 6.92122 43.5223 6.764 43.9507 6.65918C44.379 6.5498 44.8758 6.49512 45.4409 6.49512H46.5825ZM51.8062 3.60352V4.27344H48.1012V3.60352H51.8062ZM49.4615 1.70312H50.275V9.20215C50.275 9.54395 50.3206 9.80143 50.4117 9.97461C50.5029 10.1478 50.6214 10.264 50.7672 10.3232C50.913 10.3825 51.0702 10.4121 51.2389 10.4121C51.3619 10.4121 51.4804 10.4053 51.5943 10.3916C51.7083 10.3734 51.8108 10.3551 51.902 10.3369L51.9361 11.0273C51.8359 11.0592 51.706 11.0843 51.5465 11.1025C51.387 11.1253 51.2275 11.1367 51.068 11.1367C50.7535 11.1367 50.4755 11.0798 50.234 10.9658C49.9924 10.8473 49.8033 10.6468 49.6666 10.3643C49.5299 10.0771 49.4615 9.6875 49.4615 9.19531V1.70312ZM55.2595 11.1367C54.7764 11.1367 54.3321 11.0479 53.9265 10.8701C53.5254 10.6924 53.1745 10.4417 52.8737 10.1182C52.5775 9.7946 52.3474 9.41178 52.1833 8.96973C52.0238 8.52311 51.9441 8.03548 51.9441 7.50684V7.21289C51.9441 6.64323 52.0284 6.12826 52.197 5.66797C52.3656 5.20768 52.598 4.81348 52.8943 4.48535C53.1905 4.15723 53.5277 3.90658 53.906 3.7334C54.2888 3.55566 54.6898 3.4668 55.1091 3.4668C55.5785 3.4668 55.9955 3.55111 56.3601 3.71973C56.7247 3.88379 57.03 4.11849 57.2761 4.42383C57.5267 4.72461 57.7159 5.08236 57.8435 5.49707C57.9711 5.90723 58.0349 6.36068 58.0349 6.85742V7.35645H52.4362V6.65918H57.2214V6.56348C57.2123 6.14876 57.128 5.76139 56.9685 5.40137C56.8135 5.03678 56.5811 4.74056 56.2712 4.5127C55.9613 4.28483 55.5739 4.1709 55.1091 4.1709C54.7627 4.1709 54.4437 4.24382 54.1521 4.38965C53.865 4.53548 53.6166 4.74512 53.407 5.01855C53.2019 5.28743 53.0424 5.60872 52.9284 5.98242C52.8191 6.35156 52.7644 6.76172 52.7644 7.21289V7.50684C52.7644 7.91699 52.8236 8.2998 52.9421 8.65527C53.0652 9.00618 53.2383 9.31608 53.4616 9.58496C53.6895 9.85384 53.9584 10.0635 54.2683 10.2139C54.5782 10.3643 54.92 10.4395 55.2937 10.4395C55.7312 10.4395 56.1185 10.3597 56.4558 10.2002C56.793 10.0361 57.0961 9.77865 57.365 9.42773L57.8777 9.82422C57.7181 10.0612 57.5176 10.2799 57.2761 10.4805C57.0391 10.681 56.7543 10.8405 56.4216 10.959C56.0889 11.0775 55.7015 11.1367 55.2595 11.1367ZM61.2557 10.4326C61.6021 10.4326 61.9256 10.3688 62.2264 10.2412C62.5317 10.109 62.7824 9.91536 62.9784 9.66016C63.1789 9.40039 63.2928 9.08366 63.3202 8.70996H64.0995C64.0767 9.17936 63.9331 9.59863 63.6688 9.96777C63.409 10.3324 63.0672 10.6195 62.6434 10.8291C62.2241 11.0342 61.7616 11.1367 61.2557 11.1367C60.7407 11.1367 60.285 11.0433 59.8885 10.8564C59.4966 10.6696 59.1685 10.4098 58.9041 10.0771C58.6398 9.73991 58.4393 9.34798 58.3026 8.90137C58.1704 8.4502 58.1043 7.96484 58.1043 7.44531V7.1582C58.1043 6.63867 58.1704 6.1556 58.3026 5.70898C58.4393 5.25781 58.6398 4.86589 58.9041 4.5332C59.1685 4.19596 59.4966 3.93392 59.8885 3.74707C60.2804 3.56022 60.7339 3.4668 61.2489 3.4668C61.7775 3.4668 62.2515 3.57389 62.6707 3.78809C63.0946 4.00228 63.4318 4.30534 63.6825 4.69727C63.9377 5.08919 64.0767 5.55404 64.0995 6.0918H63.3202C63.2974 5.69531 63.1926 5.35352 63.0057 5.06641C62.8189 4.7793 62.5728 4.55827 62.2674 4.40332C61.9621 4.24837 61.6226 4.1709 61.2489 4.1709C60.8296 4.1709 60.4718 4.25293 60.1756 4.41699C59.8794 4.5765 59.6379 4.79753 59.451 5.08008C59.2687 5.35807 59.1343 5.67708 59.0477 6.03711C58.9611 6.39258 58.9178 6.76628 58.9178 7.1582V7.44531C58.9178 7.8418 58.9588 8.22005 59.0409 8.58008C59.1274 8.93555 59.2619 9.25228 59.4442 9.53027C59.631 9.80827 59.8726 10.0293 60.1688 10.1934C60.4696 10.3529 60.8319 10.4326 61.2557 10.4326ZM69.125 9.67383V5.85938C69.125 5.50846 69.052 5.2054 68.9062 4.9502C68.7604 4.69499 68.5462 4.49902 68.2636 4.3623C67.9811 4.22559 67.6324 4.15723 67.2177 4.15723C66.8349 4.15723 66.4931 4.22559 66.1923 4.3623C65.8961 4.49447 65.6614 4.67448 65.4882 4.90234C65.3196 5.12565 65.2353 5.37402 65.2353 5.64746L64.415 5.64062C64.415 5.36263 64.4834 5.09375 64.6201 4.83398C64.7568 4.57422 64.9505 4.3418 65.2011 4.13672C65.4518 3.93164 65.7503 3.76986 66.0966 3.65137C66.4476 3.52832 66.8326 3.4668 67.2519 3.4668C67.7806 3.4668 68.2454 3.55566 68.6464 3.7334C69.052 3.91113 69.3688 4.17773 69.5966 4.5332C69.8245 4.88867 69.9384 5.33529 69.9384 5.87305V9.44824C69.9384 9.70345 69.9567 9.96777 69.9931 10.2412C70.0341 10.5146 70.0911 10.7402 70.164 10.918V11H69.2959C69.2412 10.8359 69.1979 10.6309 69.166 10.3848C69.1386 10.1341 69.125 9.89714 69.125 9.67383ZM69.3164 6.69336L69.33 7.32227H67.7236C67.3043 7.32227 66.9283 7.361 66.5957 7.43848C66.2675 7.51139 65.9895 7.62077 65.7617 7.7666C65.5338 7.90788 65.3584 8.07878 65.2353 8.2793C65.1168 8.47982 65.0576 8.70768 65.0576 8.96289C65.0576 9.22721 65.1237 9.46875 65.2558 9.6875C65.3925 9.90625 65.5839 10.0817 65.83 10.2139C66.0807 10.3415 66.3769 10.4053 66.7187 10.4053C67.1744 10.4053 67.5755 10.321 67.9218 10.1523C68.2727 9.98372 68.5621 9.7627 68.79 9.48926C69.0179 9.21582 69.1705 8.91732 69.248 8.59375L69.6035 9.06543C69.5442 9.29329 69.4349 9.52799 69.2754 9.76953C69.1204 10.0065 68.9176 10.2298 68.667 10.4395C68.4163 10.6445 68.1201 10.8132 67.7783 10.9453C67.441 11.0729 67.0582 11.1367 66.6298 11.1367C66.1468 11.1367 65.7252 11.0456 65.3652 10.8633C65.0097 10.681 64.7317 10.4326 64.5312 10.1182C64.3352 9.79915 64.2373 9.43913 64.2373 9.03809C64.2373 8.6735 64.3147 8.34766 64.4697 8.06055C64.6246 7.76888 64.8479 7.52279 65.1396 7.32227C65.4358 7.11719 65.7913 6.96224 66.206 6.85742C66.6253 6.74805 67.0947 6.69336 67.6142 6.69336H69.3164Z" fill="#3A3A3A"/>
</svg>
