<svg xmlns="http://www.w3.org/2000/svg" viewBox="0 0 64 64" width="64" height="64">
  <circle cx="32" cy="32" r="32" fill="#dbeafe"/>
  <path d="M6 22 Q14 48 24 38 Q10 28 8 14 Z" fill="#78350f"/>
  <path d="M58 22 Q50 48 40 38 Q54 28 56 14 Z" fill="#78350f"/>
  <ellipse cx="32" cy="36" rx="16" ry="18" fill="#fefce8"/>
  <path d="M18 30 Q32 22 46 30 L44 40 Q32 34 20 40 Z" fill="#fde68a"/>
  <ellipse cx="32" cy="42" rx="6" ry="4" fill="#1c1917"/>
  <circle cx="26" cy="34" r="2.5" fill="#1c1917"/>
  <circle cx="38" cy="34" r="2.5" fill="#1c1917"/>
  <path d="M30 46 L32 48 L34 46" fill="#fda4af"/>
  <path d="M20 26 L28 24 L24 32 Z" fill="#171717"/>
  <path d="M44 26 L36 24 L40 32 Z" fill="#171717"/>
</svg>
