<svg xmlns="http://www.w3.org/2000/svg" viewBox="0 0 64 64" width="64" height="64">
  <circle cx="32" cy="32" r="32" fill="#fef9c3"/>
  <path d="M4 30 Q8 52 20 44 Q6 36 6 18 Z" fill="#92400e"/>
  <path d="M60 30 Q56 52 44 44 Q58 36 58 18 Z" fill="#92400e"/>
  <ellipse cx="32" cy="36" rx="14" ry="20" fill="#a16207"/>
  <ellipse cx="32" cy="44" rx="12" ry="10" fill="#fde68a"/>
  <ellipse cx="32" cy="48" rx="7" ry="5" fill="#1c1917"/>
  <circle cx="24" cy="36" r="2.5" fill="#1c1917"/>
  <circle cx="40" cy="36" r="2.5" fill="#1c1917"/>
  <path d="M30 50 L32 53 L34 50" fill="#fda4af"/>
  <path d="M18 34 Q14 38 16 44" fill="none" stroke="#78350f" stroke-width="1.5"/>
  <path d="M46 34 Q50 38 48 44" fill="none" stroke="#78350f" stroke-width="1.5"/>
</svg>
