<svg xmlns="http://www.w3.org/2000/svg" viewBox="0 0 64 64" width="64" height="64">
  <circle cx="32" cy="32" r="32" fill="#0e7490"/>
  <path d="M10 36 L32 10 L54 36 L50 44 L32 22 L14 44 Z" fill="#22d3ee"/>
  <path d="M18 16 L24 8 L30 18 Z" fill="#164e63"/>
  <path d="M46 16 L40 8 L36 18 Z" fill="#164e63"/>
  <ellipse cx="32" cy="38" rx="15" ry="17" fill="#94a3b8"/>
  <path d="M20 28 Q32 24 44 28 L43 34 Q32 30 21 34 Z" fill="#164e63"/>
  <circle cx="26" cy="34" r="2.5" fill="#0369a1"/>
  <circle cx="38" cy="34" r="2.5" fill="#0369a1"/>
  <path d="M30 42 L32 45 L34 42" fill="#fda4af"/>
  <path d="M14 48 Q20 44 26 48" fill="none" stroke="#a5f3fc" stroke-width="2"/>
  <path d="M38 48 Q44 44 50 48" fill="none" stroke="#a5f3fc" stroke-width="2"/>
</svg>
