<svg xmlns="http://www.w3.org/2000/svg" viewBox="0 0 64 64" width="64" height="64">
  <defs>
    <linearGradient id="sky39" x1="0%" y1="0%" x2="0%" y2="100%">
      <stop offset="0%" style="stop-color:#a78bfa"/>
      <stop offset="100%" style="stop-color:#fbcfe8"/>
    </linearGradient>
  </defs>
  <circle cx="32" cy="32" r="32" fill="url(#sky39)"/>
  <path d="M18 48 L18 32 L22 28 L22 22 L26 18 L30 22 L30 28 L34 28 L34 22 L38 18 L42 22 L42 28 L46 32 L46 48 Z" fill="#64748b"/>
  <rect x="28" y="48" width="8" height="6" fill="#475569"/>
  <rect x="24" y="36" width="4" height="5" fill="#fef08a"/>
  <rect x="36" y="36" width="4" height="5" fill="#fef08a"/>
  <path d="M26 14 L32 8 L38 14" fill="#f472b6"/>
  <circle cx="12" cy="14" r="2" fill="#fff"/>
  <circle cx="52" cy="18" r="1.5" fill="#fff"/>
  <circle cx="44" cy="10" r="1.5" fill="#fff"/>
</svg>
