<svg xmlns="http://www.w3.org/2000/svg" viewBox="0 0 64 64" width="64" height="64">
  <circle cx="32" cy="32" r="32" fill="#0d9488"/>
  <path d="M8 30 Q32 8 56 30 L54 42 Q32 36 10 42 Z" fill="#fbbf24"/>
  <path d="M10 32 Q6 48 14 52" fill="none" stroke="#047857" stroke-width="4" stroke-linecap="round"/>
  <path d="M54 32 Q58 48 50 52" fill="none" stroke="#047857" stroke-width="4" stroke-linecap="round"/>
  <ellipse cx="32" cy="38" rx="13" ry="14" fill="#fdba74"/>
  <path d="M18 34 Q14 28 18 24" fill="none" stroke="#ca8a04" stroke-width="3"/>
  <path d="M46 34 Q50 28 46 24" fill="none" stroke="#ca8a04" stroke-width="3"/>
  <ellipse cx="26" cy="36" rx="2.5" ry="3" fill="#1c1917"/>
  <ellipse cx="38" cy="36" rx="2.5" ry="3" fill="#1c1917"/>
  <path d="M20 26 L24 30 L20 34" fill="#ea580c" opacity="0.85"/>
  <path d="M44 26 L40 30 L44 34" fill="#ea580c" opacity="0.85"/>
</svg>
