<svg xmlns="http://www.w3.org/2000/svg" viewBox="0 0 64 64" width="64" height="64">
  <circle cx="32" cy="32" r="32" fill="#1e3a8a"/>
  <path d="M8 36 L32 14 L56 36 L52 44 L32 30 L12 44 Z" fill="#dc2626"/>
  <path d="M18 16 L24 8 L28 18 Z" fill="#ea580c"/>
  <path d="M46 16 L40 8 L36 18 Z" fill="#ea580c"/>
  <ellipse cx="32" cy="38" rx="16" ry="18" fill="#fb923c"/>
  <ellipse cx="32" cy="40" rx="10" ry="8" fill="#fdba74"/>
  <path d="M28 34 L32 28 L36 34 Z" fill="#fda4af"/>
  <polygon points="32,40 30,44 34,44" fill="#1c1917"/>
  <circle cx="26" cy="34" r="2.5" fill="#1c1917"/>
  <circle cx="38" cy="34" r="2.5" fill="#1c1917"/>
  <path d="M32 32 L34 24 L36 32" fill="#eab308"/>
  <line x1="14" y1="40" x2="22" y2="42" stroke="#c2410c" stroke-width="1"/>
  <line x1="14" y1="44" x2="22" y2="44" stroke="#c2410c" stroke-width="1"/>
  <line x1="50" y1="40" x2="42" y2="42" stroke="#c2410c" stroke-width="1"/>
  <line x1="50" y1="44" x2="42" y2="44" stroke="#c2410c" stroke-width="1"/>
</svg>
