<svg xmlns="http://www.w3.org/2000/svg" viewBox="0 0 64 64" width="64" height="64">
  <circle cx="32" cy="32" r="32" fill="#1e1b4b"/>
  <path d="M6 38 L32 12 L58 38 L54 48 L32 28 L10 48 Z" fill="#6b21a8"/>
  <path d="M20 14 L26 6 L30 16 Z" fill="#171717"/>
  <path d="M44 14 L38 6 L34 16 Z" fill="#171717"/>
  <ellipse cx="32" cy="38" rx="15" ry="17" fill="#27272a"/>
  <path d="M22 30 L42 30 L40 38 L24 38 Z" fill="#171717"/>
  <ellipse cx="26" cy="34" rx="3" ry="2" fill="#4ade80"/>
  <ellipse cx="38" cy="34" rx="3" ry="2" fill="#4ade80"/>
  <path d="M30 42 L32 44 L34 42" fill="#fda4af"/>
  <line x1="12" y1="42" x2="20" y2="40" stroke="#525252" stroke-width="1"/>
  <line x1="52" y1="42" x2="44" y2="40" stroke="#525252" stroke-width="1"/>
</svg>
