<svg xmlns="http://www.w3.org/2000/svg" viewBox="0 0 64 64" width="64" height="64">
  <circle cx="32" cy="32" r="32" fill="#14532d"/>
  <path d="M8 40 L32 16 L56 40 L52 50 L32 32 L12 50 Z" fill="#16a34a"/>
  <path d="M18 16 L24 8 L30 18 Z" fill="#78716c"/>
  <path d="M46 16 L40 8 L36 18 Z" fill="#78716c"/>
  <ellipse cx="32" cy="38" rx="15" ry="17" fill="#a8a29e"/>
  <path d="M20 28 Q32 24 44 28 L42 36 Q32 32 22 36 Z" fill="#15803d"/>
  <ellipse cx="26" cy="32" rx="3" ry="2.5" fill="#ecfdf5"/>
  <ellipse cx="38" cy="32" rx="3" ry="2.5" fill="#ecfdf5"/>
  <circle cx="26" cy="32" r="1.5" fill="#14532d"/>
  <circle cx="38" cy="32" r="1.5" fill="#14532d"/>
  <path d="M30 40 L32 43 L34 40" fill="#fda4af"/>
  <circle cx="32" cy="36" r="3" fill="#22c55e" opacity="0.4"/>
</svg>
