<svg xmlns="http://www.w3.org/2000/svg" viewBox="0 0 64 64" width="64" height="64">
  <circle cx="32" cy="32" r="32" fill="#ffedd5"/>
  <path d="M18 8 L26 4 L28 22 Z" fill="#ea580c"/>
  <path d="M46 8 L38 4 L36 22 Z" fill="#ea580c"/>
  <ellipse cx="32" cy="40" rx="16" ry="17" fill="#fb923c"/>
  <path d="M20 38 Q32 28 44 38 L42 46 Q32 42 22 46 Z" fill="#fff7ed"/>
  <ellipse cx="32" cy="44" rx="5" ry="3" fill="#1c1917"/>
  <circle cx="26" cy="36" r="2.5" fill="#1c1917"/>
  <circle cx="38" cy="36" r="2.5" fill="#1c1917"/>
  <path d="M30 48 L32 50 L34 48" fill="#fda4af"/>
  <path d="M14 42 Q12 46 14 50" fill="none" stroke="#c2410c" stroke-width="1.5"/>
  <path d="M50 42 Q52 46 50 50" fill="none" stroke="#c2410c" stroke-width="1.5"/>
</svg>
