<svg xmlns="http://www.w3.org/2000/svg" viewBox="0 0 64 64" width="64" height="64">
  <circle cx="32" cy="32" r="32" fill="#334155"/>
  <path d="M8 38 L32 12 L56 38 L52 48 L32 28 L12 48 Z" fill="#dc2626"/>
  <path d="M18 16 L24 8 L28 18 Z" fill="#171717"/>
  <path d="M46 16 L40 8 L36 18 Z" fill="#171717"/>
  <ellipse cx="32" cy="38" rx="15" ry="17" fill="#fafaf9"/>
  <path d="M18 36 Q32 28 46 36 L46 44 Q32 48 18 44 Z" fill="#171717"/>
  <ellipse cx="26" cy="36" rx="4" ry="3.5" fill="#e5e5e5"/>
  <ellipse cx="38" cy="36" rx="4" ry="3.5" fill="#e5e5e5"/>
  <circle cx="26" cy="36" r="2" fill="#1c1917"/>
  <circle cx="38" cy="36" r="2" fill="#1c1917"/>
  <path d="M30 42 L32 44 L34 42" fill="#fda4af"/>
  <rect x="26" y="30" width="12" height="8" rx="1" fill="#64748b"/>
</svg>
