<svg xmlns="http://www.w3.org/2000/svg" viewBox="0 0 64 64" width="64" height="64">
  <circle cx="32" cy="32" r="32" fill="#f97316"/>
  <path d="M32 4 L36 14 L30 14 Z" fill="#fde047"/>
  <path d="M18 10 L24 18 L20 20 Z" fill="#fde047"/>
  <path d="M46 10 L40 18 L44 20 Z" fill="#fde047"/>
  <path d="M8 34 L32 12 L56 34 L52 42 L32 26 L12 42 Z" fill="#ea580c"/>
  <path d="M20 16 L26 8 L30 18 Z" fill="#fbbf24"/>
  <path d="M44 16 L38 8 L34 18 Z" fill="#fbbf24"/>
  <ellipse cx="32" cy="40" rx="15" ry="17" fill="#fcd34d"/>
  <circle cx="26" cy="38" r="2.5" fill="#78350f"/>
  <circle cx="38" cy="38" r="2.5" fill="#78350f"/>
  <path d="M30 44 L32 47 L34 44" fill="#fda4af"/>
  <path d="M28 34 L32 30 L36 34" fill="#fbbf24"/>
  <line x1="14" y1="44" x2="22" y2="46" stroke="#b45309" stroke-width="1"/>
  <line x1="50" y1="44" x2="42" y2="46" stroke="#b45309" stroke-width="1"/>
</svg>
