<svg xmlns="http://www.w3.org/2000/svg" viewBox="0 0 64 64" width="64" height="64">
  <circle cx="32" cy="32" r="32" fill="#fef3c7"/>
  <path d="M8 28 Q12 44 22 40 Q14 32 10 20 Z" fill="#d97706"/>
  <path d="M56 28 Q52 44 42 40 Q50 32 54 20 Z" fill="#d97706"/>
  <ellipse cx="32" cy="36" rx="17" ry="19" fill="#f59e0b"/>
  <ellipse cx="32" cy="42" rx="10" ry="8" fill="#fde68a"/>
  <ellipse cx="32" cy="46" rx="4" ry="3" fill="#1c1917"/>
  <circle cx="24" cy="34" r="3" fill="#1c1917"/>
  <circle cx="40" cy="34" r="3" fill="#1c1917"/>
  <path d="M28 48 Q32 54 36 48" fill="#fda4af"/>
  <path d="M14 38 Q10 42 12 46" fill="none" stroke="#b45309" stroke-width="1.5"/>
  <path d="M50 38 Q54 42 52 46" fill="none" stroke="#b45309" stroke-width="1.5"/>
</svg>
