<svg xmlns="http://www.w3.org/2000/svg" viewBox="0 0 64 64" width="64" height="64">
  <circle cx="32" cy="32" r="32" fill="#86198f"/>
  <path d="M6 36 L32 8 L58 36 L54 46 L32 26 L10 46 Z" fill="#ec4899"/>
  <path d="M20 14 L26 6 L30 16 Z" fill="#fde68a"/>
  <path d="M44 14 L38 6 L36 16 Z" fill="#fde68a"/>
  <ellipse cx="32" cy="38" rx="15" ry="17" fill="#fef3c7"/>
  <circle cx="26" cy="34" r="2.5" fill="#831843"/>
  <circle cx="38" cy="34" r="2.5" fill="#831843"/>
  <path d="M30 40 L32 42 L34 40" fill="#fda4af"/>
  <polygon
    points="32,43 33,46 36,46 34,48 35,51 32,49 29,51 30,48 28,46 31,46"
    fill="#fef08a"
  />
  <path d="M28 46 L32 48 L36 46" fill="#fda4af"/>
  <line x1="14" y1="40" x2="22" y2="42" stroke="#ca8a04" stroke-width="1"/>
  <line x1="50" y1="40" x2="42" y2="42" stroke="#ca8a04" stroke-width="1"/>
</svg>
