<svg xmlns="http://www.w3.org/2000/svg" viewBox="0 0 64 64" width="64" height="64">
  <circle cx="32" cy="32" r="32" fill="#2563eb"/>
  <path d="M10 34 L32 10 L54 34 L50 42 L32 24 L14 42 Z" fill="#b91c1c"/>
  <path d="M16 18 L22 10 L28 20 Z" fill="#f5f5f4"/>
  <path d="M48 18 L42 10 L36 20 Z" fill="#f5f5f4"/>
  <ellipse cx="32" cy="38" rx="15" ry="17" fill="#fafaf9"/>
  <circle cx="26" cy="34" r="2.5" fill="#1e3a8a"/>
  <circle cx="38" cy="34" r="2.5" fill="#1e3a8a"/>
  <path d="M30 38 L32 40 L34 38" fill="#fda4af"/>
  <polygon points="32,42 35,48 29,48" fill="#eab308"/>
  <path d="M30 46 L32 48 L34 46" fill="#fda4af"/>
  <rect x="22" y="46" width="20" height="4" rx="1" fill="#dc2626"/>
  <line x1="14" y1="40" x2="22" y2="42" stroke="#a8a29e" stroke-width="1"/>
  <line x1="50" y1="40" x2="42" y2="42" stroke="#a8a29e" stroke-width="1"/>
</svg>
